<?xml version="1.0" encoding="utf-8"?>
<!-- Generator: Adobe Illustrator 23.1.1, SVG Export Plug-In . SVG Version: 6.00 Build 0)  -->
<svg version="1.1" id="Layer_1" xmlns="http://www.w3.org/2000/svg" xmlns:xlink="http://www.w3.org/1999/xlink" x="0px" y="0px"
	 viewBox="0 0 100 100" style="enable-background:new 0 0 100 100;" xml:space="preserve">
<path d="M92.7,7.5C88,2.7,81.7,0.2,75,0.2c-6.7,0-13,2.6-17.7,7.3L35.2,29.6c-9.7,9.7-9.7,25.6,0,35.4c1.6,1.6,3.4,2.8,5.2,3.9
	l9.5-9.5c-2.2-0.5-4.2-1.6-5.9-3.3c-1.6-1.6-2.6-3.4-3.1-5.4v0c-0.2-0.7-0.3-1.4-0.4-2.1c0,0,0,0,0-0.1c-0.1-0.7-0.1-1.4,0-2.1
	c0-0.1,0-0.1,0-0.2c0.1-0.7,0.2-1.3,0.3-2c0-0.1,0-0.1,0-0.2c0.5-2.1,1.6-4,3.2-5.6l22.1-22.1c2.4-2.4,5.6-3.7,8.8-3.7
	c3.2,0,6.4,1.2,8.8,3.7c4.9,4.9,4.9,12.8,0,17.7l-7.7,7.7c0.2,0.5,0.3,1.1,0.5,1.6l0,0c0,0.1,0.1,0.3,0.1,0.4
	c1.1,3.5,1.5,7.1,1.3,10.7v0c0,0.2,0,0.4-0.1,0.5c-0.1,0.9-0.1,1.8-0.2,2.6l14.8-14.8C102.4,33.1,102.4,17.2,92.7,7.5z M59.5,31.2
	L50,40.7c2.1,0.5,4.2,1.6,5.9,3.3c1.6,1.6,2.6,3.4,3.1,5.4v0c0.2,0.7,0.3,1.4,0.4,2.1c0,0,0,0.1,0,0.1c0.1,0.7,0.1,1.4,0,2.1
	c0,0.1,0,0.1,0,0.2c-0.1,0.7-0.2,1.3-0.3,2c0,0.1,0,0.1-0.1,0.2c-0.6,2.1-1.6,4-3.2,5.6L33.8,83.7c-2.4,2.4-5.6,3.7-8.8,3.7
	s-6.4-1.2-8.8-3.7c-4.9-4.9-4.9-12.8,0-17.7l7.7-7.7c-0.2-0.5-0.3-1.1-0.5-1.6v0c0-0.1-0.1-0.3-0.1-0.4c-1.1-3.5-1.5-7.1-1.3-10.7
	c0,0,0,0,0,0c0-0.2,0-0.4,0-0.5c0.1-0.9,0.1-1.8,0.2-2.6L7.3,57.2c-9.7,9.7-9.7,25.6,0,35.4c4.7,4.7,11,7.3,17.7,7.3
	s13-2.6,17.7-7.3l22.1-22.1c9.7-9.7,9.7-25.6,0-35.4C63.2,33.5,61.4,32.3,59.5,31.2z"/>
</svg>
