<?xml version="1.0" encoding="utf-8"?>
<!-- Generator: Adobe Illustrator 23.0.4, SVG Export Plug-In . SVG Version: 6.00 Build 0)  -->
<svg version="1.1" id="Layer_1" xmlns="http://www.w3.org/2000/svg" xmlns:xlink="http://www.w3.org/1999/xlink" x="0px" y="0px"
	 viewBox="0 0 100 58" style="enable-background:new 0 0 100 58;" xml:space="preserve">
<style type="text/css">
	.st0{fill-rule:evenodd;clip-rule:evenodd;fill:#FFFFFF;}
</style>
<path class="st0" d="M94.45,47.18c-42.62,5.57-73.04,12.26-73.49-15.2c0,0,0.93-10.64,13.98-11.31c0,0,0.44-9.45,10.41-10.52
	c5.36-0.58,11.45,4.94,12.11,10.75c0,0,13.19-2.44,13.76,10.42c0.2,4.48-0.81,12.1-13.53,11.77c0,0-7.36-1-8.36-12.38
	c-2.07,22.03,29.78,20.75,30.24,0.74c0.2-8.65-5.34-17.55-17.82-15.88C54.91-1.64,36.7-0.65,29.92,15.31
	c-9.69,0-17.1,7.46-16.99,17.2C13.3,63.86,56.93,54.41,94.45,47.18z"/>
</svg>
